<?xml version="1.0" standalone="no"?><!DOCTYPE svg PUBLIC "-//W3C//DTD SVG 1.1//EN" "http://www.w3.org/Graphics/SVG/1.1/DTD/svg11.dtd"><svg t="1712476545639" class="icon" viewBox="0 0 1024 1024" version="1.1" xmlns="http://www.w3.org/2000/svg" p-id="1511" xmlns:xlink="http://www.w3.org/1999/xlink" width="200" height="200"><path d="M481.28 846.08c-34.56 0-66.56-12.8-90.88-37.12L166.4 584.96l-3.84-3.84c-44.8-47.36-70.4-111.36-69.12-176.64v-3.84c0-5.12 0-8.96 1.28-14.08v-3.84-6.4c0-2.56 1.28-3.84 1.28-6.4v-2.56c1.28-5.12 1.28-11.52 2.56-16.64 0-1.28 1.28-2.56 1.28-3.84 2.56-7.68 3.84-14.08 6.4-20.48 0-1.28 1.28-2.56 1.28-3.84 1.28-5.12 3.84-11.52 7.68-19.2 14.08-30.72 34.56-57.6 61.44-80.64 5.12-3.84 10.24-8.96 16.64-14.08l3.84-2.56c6.4-3.84 11.52-7.68 17.92-11.52 0 0 1.28-1.28 2.56-1.28 6.4-3.84 11.52-6.4 16.64-8.96l3.84-1.28 19.2-7.68s1.28 0 2.56-1.28c6.4-2.56 12.8-3.84 17.92-5.12l3.84-1.28 19.2-3.84h3.84c6.4-1.28 11.52-1.28 16.64-1.28h34.56c3.84 0 6.4 0 8.96 1.28 3.84 0 7.68 1.28 11.52 1.28h3.84c8.96 1.28 17.92 3.84 25.6 6.4h5.12c24.32 7.68 46.08 17.92 66.56 30.72 20.48-14.08 43.52-24.32 66.56-30.72H547.84c7.68-2.56 16.64-3.84 24.32-5.12 2.56 0 3.84 0 5.12-1.28 3.84 0 7.68-1.28 11.52-1.28 2.56 0 6.4 0 8.96-1.28h34.56c5.12 0 11.52 1.28 16.64 1.28h3.84c6.4 1.28 14.08 2.56 20.48 3.84l2.56 1.28c7.68 1.28 14.08 3.84 19.2 5.12l2.56 1.28 19.2 7.68 3.84 1.28c6.4 2.56 12.8 6.4 17.92 8.96 0 0 1.28 0 1.28 1.28 5.12 2.56 11.52 6.4 17.92 11.52 1.28 1.28 2.56 1.28 3.84 2.56 6.4 5.12 11.52 8.96 16.64 12.8 25.6 23.04 46.08 49.92 61.44 80.64 3.84 6.4 6.4 14.08 7.68 19.2 0 1.28 1.28 2.56 1.28 3.84 2.56 6.4 3.84 12.8 6.4 21.76 0 0 0 1.28 1.28 2.56 1.28 5.12 2.56 10.24 2.56 16.64v2.56c0 2.56 1.28 3.84 1.28 6.4s0 5.12 1.28 7.68v3.84c0 5.12 1.28 10.24 1.28 15.36v3.84c1.28 65.28-24.32 129.28-69.12 176.64l-3.84 3.84-217.6 221.44c-24.32 24.32-56.32 38.4-90.88 38.4zM171.52 403.2v2.56c-1.28 44.8 16.64 89.6 47.36 121.6 1.28 1.28 1.28 2.56 2.56 2.56l222.72 222.72c19.2 19.2 53.76 19.2 72.96 0l222.72-222.72 2.56-2.56c32-33.28 48.64-76.8 47.36-122.88v-2.56c0-2.56 0-6.4-1.28-8.96v-2.56-5.12c0-2.56-1.28-3.84-1.28-5.12v-1.28c0-3.84-1.28-6.4-1.28-10.24 0-1.28 0-2.56-1.28-2.56-1.28-5.12-2.56-8.96-3.84-14.08 0-1.28-1.28-2.56-1.28-3.84-1.28-3.84-3.84-8.96-5.12-12.8-10.24-21.76-24.32-39.68-42.24-56.32-3.84-3.84-7.68-6.4-11.52-8.96l-2.56-1.28c-3.84-2.56-7.68-5.12-12.8-7.68 0 0-1.28 0-1.28-1.28-3.84-1.28-7.68-3.84-11.52-6.4l-2.56-1.28c-3.84-2.56-8.96-3.84-12.8-5.12h-1.28c-3.84-1.28-7.68-2.56-12.8-3.84h-1.28-1.28c-5.12-1.28-8.96-2.56-14.08-2.56h-2.56c-3.84 0-7.68-1.28-11.52-1.28H601.6c-2.56 0-5.12 1.28-7.68 1.28h-3.84c-6.4 1.28-11.52 2.56-17.92 3.84h-1.28c-25.6 7.68-46.08 19.2-65.28 35.84-14.08 11.52-35.84 11.52-49.92 0-19.2-16.64-40.96-28.16-65.28-35.84h-1.28-1.28c-6.4-1.28-11.52-2.56-17.92-3.84h-2.56c-3.84-1.28-6.4-1.28-8.96-1.28h-30.72c-3.84 0-7.68 0-11.52 1.28h-2.56c-5.12 1.28-8.96 1.28-14.08 2.56h-1.28-1.28c-3.84 1.28-8.96 2.56-12.8 3.84h-1.28c-3.84 1.28-8.96 2.56-12.8 5.12l-1.28 2.56c-3.84 2.56-7.68 3.84-12.8 6.4 0 0-1.28 0-1.28 1.28l-11.52 7.68-2.56 2.56c-3.84 2.56-7.68 6.4-11.52 8.96-17.92 15.36-32 34.56-42.24 55.04-2.56 3.84-3.84 8.96-5.12 12.8 0 1.28-1.28 2.56-1.28 3.84-1.28 3.84-2.56 7.68-3.84 14.08 0 0 0 2.56-1.28 2.56-1.28 2.56-1.28 6.4-1.28 10.24v1.28c0 1.28 0 2.56-1.28 3.84v8.96c-1.28 2.56-1.28 5.12-1.28 8.96z m627.2 177.92z m-7.68-177.92z m-230.4-193.28z" fill="#333333" p-id="1512"></path></svg>