<?xml version="1.0" standalone="no"?><!DOCTYPE svg PUBLIC "-//W3C//DTD SVG 1.1//EN" "http://www.w3.org/Graphics/SVG/1.1/DTD/svg11.dtd"><svg t="1712551823694" class="icon" viewBox="0 0 1024 1024" version="1.1" xmlns="http://www.w3.org/2000/svg" p-id="1009" xmlns:xlink="http://www.w3.org/1999/xlink" width="200" height="200"><path d="M541.44 992c-83.2 0-165.12-24.32-236.8-70.4C207.36 857.6 140.8 760.32 116.48 646.4c-24.32-113.92-2.56-230.4 61.44-327.68s161.28-163.84 275.2-188.16c113.92-24.32 230.4-2.56 327.68 61.44 97.28 64 163.84 161.28 188.16 275.2 3.84 20.48-8.96 40.96-29.44 46.08-20.48 3.84-40.96-8.96-46.08-29.44C852.48 290.56 661.76 166.4 468.48 207.36c-93.44 20.48-174.08 75.52-226.56 154.88-52.48 80.64-70.4 176.64-49.92 270.08 19.2 93.44 75.52 174.08 154.88 226.56 80.64 52.48 176.64 70.4 270.08 49.92 136.96-29.44 244.48-135.68 275.2-271.36 5.12-20.48 25.6-33.28 46.08-29.44 20.48 5.12 33.28 25.6 29.44 46.08-37.12 165.12-168.96 294.4-334.08 330.24-32 3.84-61.44 7.68-92.16 7.68z" p-id="1010"></path><path d="M486.4 755.2c-10.24 0-21.76-2.56-30.72-7.68-24.32-11.52-39.68-35.84-39.68-62.72V427.52c0-26.88 15.36-51.2 39.68-62.72 24.32-11.52 52.48-8.96 74.24 7.68l167.68 129.28c17.92 12.8 26.88 33.28 26.88 55.04 0 21.76-10.24 42.24-26.88 55.04l-167.68 128c-12.8 10.24-28.16 15.36-43.52 15.36z m6.4-314.88v230.4l149.76-115.2-149.76-115.2z m157.44 121.6z" p-id="1011"></path></svg>